# xmcd
#
# Track frame offsets:
#	150
#	6250
#	27167
#	32173
#	60827
#	78517
#	86072
#	106440
#	134040
#	151922
#	171415
#	190841
#	205771
#	220642
#	229459
#	249759
#
# Disc length: 3615 seconds
#
# Revision: 0
# Processed by: cddbd v1.5.1PL2 Copyright (c) Steve Scherf et al.
# Submitted via: dBpowerAMP V4.0
#
DISCID=d10e1d10
DTITLE=Lovage - Songs To Make Love To Your Old Lady By
DYEAR=1900
DGENRE=Blues
TTITLE0=Lovage - Ladies Love Chest Rockwell
TTITLE1=Lovage - Strangers On A Train
TTITLE2=Lovage - Lovage
TTITLE3=Lovage - Sex (I'm A)
TTITLE4=Lovage - Koala's Lament
TTITLE5=Lovage - Tea Time With Maseo
TTITLE6=Lovage - Stocker Ace
TTITLE7=Lovage - Archie and Veronica
TTITLE8=Lovage - Pit Stop (Jake Me Home)
TTITLE9=Lovage - Anger Management
TTITLE10=Lovage - Everyone Has A Summer
TTITLE11=Lovage - To Catch A Thief
TTITLE12=Lovage - Lies And Alibis
TTITLE13=Lovage - Herbs, Good Hygiene And Socks
TTITLE14=Lovage - Book Of The Month
TTITLE15=Lovage - Lifeboat
EXTD=
EXTT0=
EXTT1=
EXTT2=
EXTT3=
EXTT4=
EXTT5=
EXTT6=
EXTT7=
EXTT8=
EXTT9=
EXTT10=
EXTT11=
EXTT12=
EXTT13=
EXTT14=
EXTT15=
PLAYORDER=
